<?xml version="1.0" encoding="UTF-8"?>
<svg version="1.1" xmlns="http://www.w3.org/2000/svg" width="1024" height="1024">
<path d="M0 0 C1.3211062 1.85711647 2.53942804 3.70110717 3.67773438 5.67651367 C4.35896362 6.85769775 4.35896362 6.85769775 5.05395508 8.06274414 C5.543396 8.92786621 6.03283691 9.79298828 6.53710938 10.68432617 C7.05942139 11.60487793 7.5817334 12.52542969 8.11987305 13.47387695 C18.28537119 31.56676268 27.56044424 50.13399442 36.59960938 68.80932617 C36.92434235 69.4799408 37.24907532 70.15055542 37.58364868 70.8414917 C43.29381107 82.65455295 43.29381107 82.65455295 45.28710938 87.80932617 C46.04813965 87.71844727 46.80916992 87.62756836 47.59326172 87.53393555 C79.04653559 83.88147855 109.83430017 83.77784601 141.28710938 87.80932617 C141.56683594 87.18928711 141.8465625 86.56924805 142.13476562 85.93041992 C155.62337739 56.13403317 169.76769064 26.48168044 187.28710938 -1.19067383 C227.67628652 7.62224869 266.67070123 19.94646877 304.22460938 37.30932617 C304.93520508 37.63562012 305.64580078 37.96191406 306.37792969 38.2980957 C311.16565036 40.56640815 311.16565036 40.56640815 312.28710938 42.80932617 C312.28199042 45.58001008 312.21115077 48.31664478 312.08789062 51.08276367 C312.05297516 51.93765884 312.01805969 52.79255402 311.98208618 53.6733551 C311.86221987 56.5107366 311.73193061 59.34749955 311.59960938 62.18432617 C311.55587189 63.15451691 311.5121344 64.12470764 311.46707153 65.1242981 C310.56478942 84.78784646 308.87415233 104.35026649 306.94581604 123.9362793 C306.29791649 130.55445232 305.75439389 137.17570365 305.28710938 143.80932617 C305.89071289 144.16124023 306.49431641 144.5131543 307.11621094 144.87573242 C322.45362538 153.8337648 337.17333058 162.99417 351.28710938 173.80932617 C352.84751953 175.00041992 352.84751953 175.00041992 354.43945312 176.21557617 C357.165456 178.30053271 359.88164272 180.397883 362.59423828 182.50024414 C364.32524874 183.838819 366.06201279 185.16970161 367.79882812 186.50073242 C374.32223623 191.53246112 380.57224896 196.69371845 386.46899414 202.45751953 C389.33712483 205.3227196 389.33712483 205.3227196 393.28710938 205.80932617 C395.12704143 204.89888954 395.12704143 204.89888954 397.03320312 203.60620117 C397.77715332 203.12683105 398.52110352 202.64746094 399.28759766 202.15356445 C400.49391846 201.3644165 400.49391846 201.3644165 401.72460938 200.55932617 C403.45916598 199.4456 405.19487853 198.33367243 406.93164062 197.22338867 C407.82318848 196.65265625 408.71473633 196.08192383 409.63330078 195.49389648 C424.24221438 186.22052907 439.31780068 177.73198959 454.46289062 169.37329102 C457.00563686 167.96519693 459.53820134 166.54064489 462.06835938 165.11010742 C463.41165281 164.36319197 464.755362 163.61702342 466.09960938 162.87182617 C467.21980469 162.24405273 468.34 161.6162793 469.49414062 160.96948242 C472.28710938 159.80932617 472.28710938 159.80932617 474.34960938 159.78198242 C477.30266312 161.34781536 479.30363901 163.70354583 481.47460938 166.18432617 C481.95655762 166.72234863 482.43850586 167.26037109 482.93505859 167.81469727 C486.79551698 172.15882667 490.47242572 176.64493213 494.11523438 181.17260742 C496.22467287 183.73352645 498.41598586 186.18056072 500.66210938 188.62182617 C505.68027565 194.14267577 510.2314904 199.98837827 514.78613281 205.88891602 C516.27613313 207.79528272 517.79617747 209.67324285 519.32617188 211.54760742 C529.58618385 224.24558031 538.50300567 237.82487915 547.47851562 251.44213867 C547.889505 252.0655867 548.30049438 252.68903473 548.72393799 253.33137512 C549.51497008 254.5369526 550.29993486 255.74653575 551.07839966 256.96026611 C551.93512187 258.2708627 552.8234571 259.56103945 553.73287964 260.83563232 C557.28427883 265.99545035 557.28427883 265.99545035 557.2980957 269.96826172 C556.20202208 273.04843772 554.89083917 275.52244734 553.11132812 278.26635742 C552.45430908 279.28785889 551.79729004 280.30936035 551.12036133 281.36181641 C550.05821411 282.97552124 550.05821411 282.97552124 548.97460938 284.62182617 C548.24134222 285.74922672 547.50851732 286.87691502 546.77612305 288.00488281 C541.30329697 296.40023014 535.64599026 304.65152209 529.765625 312.76586914 C528.20629486 314.92101995 526.66001384 317.0851318 525.11523438 319.25073242 C524.02711256 320.77056435 522.93858092 322.29010297 521.84960938 323.80932617 C521.38466064 324.46022217 520.91971191 325.11111816 520.44067383 325.78173828 C519.95816162 326.45084229 519.47564941 327.11994629 518.97851562 327.80932617 C518.47607677 328.52610314 517.97363791 329.24288012 517.45597363 329.9813776 C515.75550089 332.19859772 514.05565454 334.13724301 512.13798237 336.15138149 C501.12716749 348.23462553 500.44750036 358.55023619 500.71948242 374.41308594 C500.71327485 376.84908058 500.70134385 379.28506626 500.68417358 381.7210083 C500.66015285 386.93138618 500.67525948 392.14002245 500.72742271 397.35013008 C500.80276636 404.8824976 500.80528137 412.41356244 500.79095934 419.94622981 C500.76965039 432.17172071 500.80589636 444.39631849 500.87915039 456.62158203 C500.95011463 468.48558156 500.99346677 480.34916163 501.00024414 492.21337891 C501.00067255 492.94670051 501.00110096 493.68002212 501.00154235 494.4355656 C501.00352342 498.11503031 501.00496754 501.794495 501.00614488 505.47396004 C501.01657933 535.91955089 501.12173328 566.36415917 501.28710938 596.80932617 C500.50080894 596.88294498 499.71450851 596.9565638 498.9043808 597.03241348 C479.75591751 598.82633811 460.60920894 600.63800856 441.4642868 602.46934891 C432.2058312 603.35455216 422.94688126 604.23378066 413.68652344 605.09887695 C405.61347637 605.85307086 397.54159145 606.61854445 389.47089243 607.39747787 C385.19902451 607.80937682 380.92679291 608.21567786 376.65312195 608.6084671 C372.62659301 608.97872187 368.6017925 609.36409835 364.57779312 609.76087379 C363.10458344 609.9034857 361.63083643 610.04067307 360.15656662 610.17187309 C352.39028305 610.86624734 345.90286405 611.50377114 339.28710938 615.80932617 C333.80731089 622.41956549 334.2949747 631.50676643 333.80273438 639.68432617 C333.6978434 641.21999205 333.59143469 642.75555494 333.48358154 644.29101562 C333.20548179 648.30792108 332.94785709 652.32588091 332.69464111 656.34442139 C332.43195617 660.45466216 332.1496978 664.56355479 331.86914062 668.67260742 C331.32275677 676.71699636 330.79802131 684.76260681 330.28710938 692.80932617 C318.38425629 693.68785845 306.4813764 694.56602667 294.57846451 695.44376183 C289.04822807 695.85157899 283.51800008 696.25950987 277.98779297 696.66772461 C266.49935949 697.51567044 255.01079532 698.36177119 243.52191925 699.20370102 C238.477718 699.57370828 233.43379248 699.94702508 228.39027786 700.32627678 C225.20502914 700.56527409 222.01947669 700.80016366 218.83398438 701.03588867 C217.77133362 701.11737152 216.70868286 701.19885437 215.61383057 701.2828064 C209.49245487 701.73096929 203.42449889 701.90299869 197.28710938 701.80932617 C196.66773261 698.0209709 196.05106748 694.2321824 195.43624878 690.44308472 C195.2119238 689.06286889 194.98692842 687.68276186 194.76126099 686.30276489 C193.41780784 678.08392941 192.13503238 669.86193342 190.98242188 661.61401367 C190.76938925 660.11584772 190.55609485 658.61771898 190.3425293 657.11962891 C190.0328568 654.94716421 189.72828892 652.77467305 189.44082642 650.59915161 C189.17272403 648.57200505 188.88594782 646.54824729 188.59570312 644.52416992 C188.36065063 642.79348267 188.36065063 642.79348267 188.12084961 641.02783203 C186.74683103 635.72367774 183.97303101 631.68134266 179.28710938 628.80932617 C175.87545002 627.67210639 173.2635871 627.67770561 169.66471863 627.66888428 C168.98851906 627.66591316 168.31231948 627.66294203 167.61562902 627.65988088 C165.3448958 627.65119434 163.07421532 627.64968567 160.8034668 627.64819336 C159.17731107 627.64356515 157.55115643 627.63854049 155.92500305 627.63314819 C151.50343166 627.62002242 147.08187545 627.61357889 142.66028762 627.60913754 C139.89815488 627.60620709 137.13602629 627.60210233 134.37389565 627.59763336 C125.7326739 627.58395795 117.09146164 627.57429151 108.45022982 627.57043147 C98.47362081 627.5659505 88.49714878 627.54840097 78.52058142 627.51943088 C70.81008472 627.49781787 63.09962657 627.48772739 55.3890999 627.48639035 C50.78345209 627.48534205 46.17793305 627.47942885 41.57231712 627.46157074 C37.23931456 627.44509665 32.90653765 627.4429313 28.57351494 627.45170975 C26.98443243 627.45248048 25.39533783 627.44813262 23.80628586 627.4382515 C21.63407253 627.42553783 19.46265912 627.43140492 17.29045105 627.4418335 C16.07573718 627.44036694 14.86102331 627.43890038 13.60949993 627.43738937 C8.78687923 627.97727476 5.50093696 629.62921602 2.03710938 632.99682617 C-2.15250289 639.7301316 -2.51813297 648.55109655 -3.62304688 656.26245117 C-3.88159706 658.0291214 -3.88159706 658.0291214 -4.14537048 659.83148193 C-4.69252779 663.57355208 -5.23431891 667.31637166 -5.77539062 671.05932617 C-6.32074129 674.81645339 -6.8672653 678.57340047 -7.41612244 682.33001709 C-7.75667869 684.66241877 -8.09510292 686.99513296 -8.4311676 689.32818604 C-8.5848027 690.38318298 -8.73843781 691.43817993 -8.89672852 692.52514648 C-9.03059464 693.4514386 -9.16446075 694.37773071 -9.30238342 695.33209229 C-9.66746313 697.53519085 -10.15743018 699.64861146 -10.71289062 701.80932617 C-18.22911206 701.93402889 -25.64609412 701.54911917 -33.13916016 700.9831543 C-34.94088432 700.85148109 -34.94088432 700.85148109 -36.77900696 700.71714783 C-40.04090942 700.47805257 -43.30255379 700.2357507 -46.56410837 699.99196434 C-49.98451095 699.7370865 -53.40521995 699.48638886 -56.82589722 699.23522949 C-63.28919668 698.76003981 -69.7522158 698.28114344 -76.21514022 697.80088282 C-83.57898478 697.25385861 -90.94313575 696.71101594 -98.30731416 696.16850758 C-113.44284948 695.05340129 -128.57799609 693.93309871 -143.71289062 692.80932617 C-143.76664856 691.96265381 -143.82040649 691.11598145 -143.87579346 690.24365234 C-144.38709722 682.23935368 -144.91504093 674.23636036 -145.46139908 666.234375 C-145.74166582 662.12105533 -146.01562715 658.0075227 -146.27490234 653.89282227 C-146.52566031 649.91706411 -146.79334128 645.94276595 -147.07247162 641.96890259 C-147.1757009 640.45756497 -147.27297006 638.9458073 -147.36399078 637.4336853 C-147.74409996 625.88350482 -147.74409996 625.88350482 -152.71289062 615.80932617 C-159.90643463 611.12774394 -167.37191496 610.72455953 -175.7578125 609.97827148 C-177.27634802 609.83127188 -178.7947476 609.68286232 -180.3130188 609.53315735 C-184.41445203 609.13274679 -188.51749474 608.75197474 -192.62112236 608.37481403 C-196.91701437 607.97658012 -201.21114221 607.56015483 -205.50549316 607.14569092 C-213.62846829 606.36448401 -221.75288934 605.59954987 -229.87796259 604.84051108 C-239.13190498 603.97521064 -248.38407952 603.09169039 -257.63615322 602.20666742 C-276.65984164 600.38733419 -295.68562041 598.59078907 -314.71289062 596.80932617 C-314.70513926 595.55294657 -314.69738789 594.29656696 -314.68940163 593.00211525 C-314.50813435 563.11117367 -314.39982771 533.22092481 -314.38015828 503.32948134 C-314.37766897 499.64242389 -314.37456993 495.95536719 -314.37109375 492.26831055 C-314.37007115 491.16737016 -314.37007115 491.16737016 -314.3690279 490.04418854 C-314.35656953 478.19315981 -314.29483079 466.34288203 -314.21455689 454.49214073 C-314.1331651 442.31262869 -314.10548005 430.13382837 -314.12661874 417.954059 C-314.13797925 410.45080006 -314.1085219 402.95006284 -314.02515553 395.44724868 C-313.96550817 389.67299904 -313.9809502 383.90073619 -314.02298164 378.12642097 C-314.02870609 375.77312983 -314.0109097 373.41963313 -313.96663857 371.06675148 C-313.67844866 354.76331043 -316.67143367 345.67099478 -327.94159389 333.77188945 C-330.84780445 330.55186312 -333.28309036 327.01716476 -335.74023438 323.44995117 C-336.25129018 322.71755104 -336.76234599 321.98515092 -337.28888834 321.23055685 C-342.83057664 313.28020959 -348.20003374 305.21118858 -353.56176758 297.13891602 C-355.30277044 294.51811016 -357.04761471 291.89989212 -358.79296875 289.28198242 C-359.91363175 287.5985353 -361.03408267 285.91494697 -362.15429688 284.23120117 C-362.66988663 283.45726013 -363.18547638 282.68331909 -363.71669006 281.88592529 C-370.72953181 271.32021054 -370.72953181 271.32021054 -370.63476562 268.41088867 C-369.45585208 265.08395467 -367.8095122 262.172605 -365.96289062 259.18432617 C-365.56803467 258.53753906 -365.17317871 257.89075195 -364.76635742 257.22436523 C-349.70340116 232.86773498 -332.16553937 210.16427862 -313.6015625 188.40087891 C-310.68383299 184.97811656 -307.84253332 181.50260374 -305.02539062 177.99682617 C-301.7130431 173.91872088 -298.21209045 170.19178348 -294.44335938 166.53588867 C-292.33843853 164.43571934 -290.49592354 162.18670339 -288.71289062 159.80932617 C-284.68399259 160.41755685 -281.63377651 161.70884257 -278.04882812 163.62573242 C-276.94039551 164.21684814 -275.83196289 164.80796387 -274.68994141 165.41699219 C-273.48888247 166.06791141 -272.28820888 166.7195421 -271.08789062 167.37182617 C-270.4736322 167.70334686 -269.85937378 168.03486755 -269.22650146 168.37643433 C-250.15977458 178.67517178 -231.52571615 189.72634939 -213.42431641 201.64550781 C-212.5811084 202.19456787 -211.73790039 202.74362793 -210.86914062 203.30932617 C-210.13501953 203.79401367 -209.40089844 204.27870117 -208.64453125 204.77807617 C-206.63676014 206.04480545 -206.63676014 206.04480545 -203.71289062 205.80932617 C-202.06397826 204.41223681 -202.06397826 204.41223681 -200.40039062 202.49682617 C-195.29165238 197.20265278 -189.55582448 192.83522759 -183.73583984 188.37036133 C-181.61374642 186.73282026 -179.50781944 185.07611301 -177.40429688 183.41479492 C-160.23037203 169.87630871 -142.50262609 158.00357575 -123.71289062 146.80932617 C-122.04590429 145.80985915 -120.37914785 144.81000826 -118.71289062 143.80932617 C-119.23715172 136.35921058 -119.88077361 128.9286528 -120.61523438 121.49682617 C-123.21224189 94.95280569 -124.78023747 68.46197535 -125.71289062 41.80932617 C-123.20327285 40.54599791 -120.69272919 39.28456883 -118.18164062 38.02416992 C-117.48135742 37.67140991 -116.78107422 37.3186499 -116.05957031 36.9552002 C-85.083791 21.42259954 -51.68837232 11.16924372 -18.18359375 2.68969727 C-15.79645722 2.08418134 -13.41510158 1.45555619 -11.0390625 0.80786133 C-9.87439453 0.50541504 -8.70972656 0.20296875 -7.50976562 -0.10864258 C-6.4665918 -0.38861084 -5.42341797 -0.6685791 -4.34863281 -0.95703125 C-1.71289062 -1.19067383 -1.71289062 -1.19067383 0 0 Z M-190.71289062 392.80932617 C-205.33943709 411.25417108 -212.47503685 434.27630633 -210.71289062 457.80932617 C-207.92812871 481.64248615 -197.49804986 503.6336377 -178.83007812 519.21557617 C-175.84573182 521.50535594 -172.81375807 523.68055606 -169.71289062 525.80932617 C-168.92398438 526.36491211 -168.13507813 526.92049805 -167.32226562 527.49291992 C-148.28296488 539.95912874 -122.79182697 542.9962964 -100.75878906 538.78173828 C-86.06319172 535.38842314 -73.27618209 528.35274782 -61.71289062 518.80932617 C-60.66101563 518.02557617 -59.60914063 517.24182617 -58.52539062 516.43432617 C-40.45063897 499.56455796 -31.28131093 477.22539253 -29.49804688 452.87573242 C-28.6965951 429.24893399 -38.04404693 406.21026993 -53.71289062 388.80932617 C-54.72609375 387.6549707 -54.72609375 387.6549707 -55.75976562 386.47729492 C-70.94444047 370.17945783 -92.79839657 360.73535925 -114.89648438 359.42651367 C-144.55156019 358.41815365 -171.52962115 370.03839709 -190.71289062 392.80932617 Z M242.28710938 386.80932617 C241.12888672 387.94821289 241.12888672 387.94821289 239.94726562 389.11010742 C223.83516327 405.93830321 215.84909894 429.46864475 216.13867188 452.54760742 C217.08337859 473.30629447 224.5546505 491.51697573 237.28710938 507.80932617 C237.733125 508.42163086 238.17914062 509.03393555 238.63867188 509.66479492 C251.11005291 525.77047411 271.63945197 535.08864629 291.01367188 539.41870117 C310.60400158 541.75644935 329.69204176 540.02838014 347.28710938 530.80932617 C348.15207031 530.40327148 349.01703125 529.9972168 349.90820312 529.57885742 C370.5154665 519.37990704 384.64681171 500.47053579 392.59570312 479.32885742 C400.16303659 456.12791197 398.86509011 431.84539346 388.28710938 409.80932617 C383.53421473 400.85999577 377.44874353 392.97096033 370.28710938 385.80932617 C369.51753906 385.03975586 368.74796875 384.27018555 367.95507812 383.47729492 C350.40424626 366.83377585 328.19845599 359.24908955 304.27270508 359.38745117 C280.22992327 360.04919908 259.37834604 369.99965848 242.28710938 386.80932617 Z M69.28710938 423.80932617 C64.98417243 430.5013938 64.13618204 436.49748596 64.11010742 444.36645508 C64.10353622 445.22879761 64.09696503 446.09114014 64.0901947 446.97961426 C64.07049605 449.83170668 64.05880512 452.68374646 64.04882812 455.53588867 C64.0447526 456.51266949 64.04067707 457.4894503 64.03647804 458.49583054 C64.01562933 463.66852353 64.00132388 468.84119011 63.99194336 474.01391602 C63.98089715 479.34001081 63.94651433 484.66568573 63.90677166 489.99163246 C63.88054362 494.1010716 63.8722459 498.21041175 63.86866188 502.31992722 C63.86380989 504.2821981 63.85223577 506.24446498 63.83362389 508.20665359 C63.7295509 519.90847854 63.84098738 529.07662715 70.47460938 539.12182617 C76.66601744 545.03806054 84.29645171 548.73811479 92.91601562 548.84057617 C102.08615224 548.33041558 109.78497963 545.45923159 116.28710938 538.80932617 C121.10288589 531.52693242 122.4363014 525.92115131 122.44824219 517.23632812 C122.45320709 516.3723793 122.458172 515.50843048 122.46328735 514.61830139 C122.4778857 511.76139527 122.48470799 508.90454471 122.49023438 506.04760742 C122.49598883 504.05706278 122.50174652 502.06651814 122.50750732 500.07597351 C122.51801145 495.90058128 122.52385761 491.72520827 122.52734375 487.54980469 C122.53281969 482.21472044 122.55683102 476.87989252 122.5853157 471.5448885 C122.60399608 467.4312009 122.60915061 463.3175743 122.61067963 459.20384789 C122.61369574 457.23797394 122.62168889 455.2721008 122.63486481 453.30626869 C122.65203434 450.54708349 122.65001831 447.7885147 122.64355469 445.02929688 C122.65276947 444.22637207 122.66198425 443.42344727 122.67147827 442.59619141 C122.60887834 434.00998277 120.29565583 426.89888846 114.38867188 420.60229492 C107.62860285 414.83487544 99.8193301 412.40706593 91.07226562 412.53588867 C82.37371711 413.38988362 74.96662026 417.17876512 69.28710938 423.80932617 Z " fill="#FFFFFF" transform="translate(418.712890625,77.190673828125)"/>
<path d="M0 0 C27.08664611 2.15577987 54.13146772 4.68354083 81.1751709 7.31976318 C85.4209973 7.73284785 89.66711553 8.14288958 93.91323566 8.55294228 C98.03718354 8.95149565 102.16097583 9.35163966 106.28471947 9.75230026 C108.2354441 9.94169673 110.18620965 10.13067226 112.1370182 10.31920242 C114.83800236 10.58052804 117.538776 10.84393123 120.23950195 11.10791016 C121.02739609 11.18375839 121.81529022 11.25960663 122.62705994 11.3377533 C135.61467137 12.61467137 135.61467137 12.61467137 137 14 C137.2216045 16.10732662 137.37793214 18.22153889 137.5090332 20.33642578 C137.55152191 20.99832413 137.59401062 21.66022247 137.63778687 22.34217834 C137.73017348 23.78476666 137.82064123 25.22747882 137.90944862 26.6702919 C138.0515614 28.95787057 138.20149654 31.24480296 138.35404968 33.53170776 C138.787675 40.03598458 139.21642945 46.54046503 139.61694336 53.046875 C139.86232221 57.02376192 140.12491122 60.99919912 140.39851952 64.97423935 C140.49934508 66.48638911 140.59381647 67.99897708 140.68166542 69.51193619 C141.12164387 80.47183995 141.12164387 80.47183995 146 90 C153.63901934 96.6585707 166.65646732 95.5807771 176.25854492 96.25268555 C177.76444529 96.36248477 179.27030884 96.47278977 180.77613831 96.58355713 C184.83335046 96.88036857 188.891069 97.16959046 192.94896102 97.45693946 C196.34638249 97.69821307 199.74353017 97.94322685 203.14068586 98.18820983 C211.15549858 98.76611878 219.1707372 99.33782123 227.1862793 99.90551758 C235.43998346 100.49018335 243.69291339 101.08497795 251.94552916 101.68479508 C259.05114694 102.20090887 266.15718372 102.71093487 273.26359063 103.21606666 C277.4993846 103.51720008 281.73498807 103.82055726 285.97020531 104.12970543 C289.94984252 104.41991529 293.92995152 104.7024819 297.91054344 104.97927856 C299.36675114 105.08179242 300.82277613 105.18694262 302.27858353 105.29499245 C315.87894543 106.906022 315.87894543 106.906022 328 102 C332.24736966 95.05911304 333.22638556 88.2174201 334.32421875 80.234375 C334.51662338 78.9099922 334.71031593 77.58579593 334.90522766 76.26177979 C335.41169777 72.79954396 335.90199936 69.33521815 336.38842773 65.87011719 C336.98316869 61.65401068 337.59611414 57.44052003 338.20735645 53.22677994 C338.68241034 49.95051252 339.15349656 46.67385309 339.61711121 43.39593506 C339.78431168 42.2208136 339.95151215 41.04569214 340.1237793 39.83496094 C340.2693779 38.80207947 340.4149765 37.769198 340.56498718 36.70501709 C341 34 341 34 342 30 C385.56 30 429.12 30 474 30 C480.0136908 67.28488294 480.0136908 67.28488294 481.83666992 81.00024414 C483.2343992 93.71250808 483.2343992 93.71250808 490.25 103.9375 C498.48408307 107.11885028 507.27168262 105.77369083 515.87036133 105.13549805 C517.37086997 105.0298655 518.87142591 104.92490311 520.37202454 104.82055664 C524.43055043 104.53628022 528.4883127 104.24222536 532.54598451 103.94603705 C536.8059156 103.63642791 541.06641104 103.33477211 545.326828 103.03193665 C552.48334344 102.52198046 559.63938087 102.00569293 566.79516602 101.4855957 C575.04584113 100.88599425 583.29717378 100.29622397 591.54893667 99.71179742 C599.51030828 99.14771963 607.471173 98.57677104 615.43182945 98.00269508 C618.80817304 97.75932285 622.18467122 97.51828902 625.56131935 97.27918053 C629.5467417 96.99663958 633.53168155 96.70803226 637.51634026 96.41492462 C638.97094054 96.30886582 640.42568833 96.20480611 641.88059235 96.10299873 C657.72857752 95.93811604 657.72857752 95.93811604 671 89 C673.57537855 84.58273932 674.45106681 81.08357398 674.78369141 76.00073242 C674.83129105 75.32846619 674.87889069 74.65619995 674.92793274 73.96356201 C675.08103501 71.76148901 675.21622668 69.55869847 675.3515625 67.35546875 C675.45572837 65.81935734 675.56116553 64.28333165 675.66781616 62.74739075 C675.94472199 58.7191107 676.20706519 54.69002382 676.46551514 50.66052246 C676.88258548 44.19329851 677.32083505 37.7274888 677.76102829 31.26180458 C677.91266255 29.00133838 678.05746304 26.7405106 678.20132446 24.47953796 C678.29242017 23.10377955 678.38366936 21.72803128 678.47509766 20.35229492 C678.55265289 19.14683517 678.63020813 17.94137543 678.71011353 16.6993866 C679 14 679 14 680 13 C682.20428602 12.693538 684.41739589 12.45046535 686.63208008 12.23144531 C687.32994755 12.16121155 688.02781502 12.09097778 688.74682999 12.01861572 C691.08732668 11.78418378 693.4284032 11.55615904 695.76953125 11.328125 C697.42162194 11.16400585 699.07367513 10.99950886 700.72569275 10.83465576 C705.16801904 10.39254574 709.61088013 9.95604649 714.05387878 9.52075195 C717.71621488 9.16130259 721.37824238 8.79876605 725.04026604 8.4361496 C735.87288708 7.36351146 746.70642411 6.30035331 757.54032135 5.24069214 C759.87999767 5.01174284 762.21963979 4.78244806 764.55926514 4.55297852 C773.28900752 3.69678167 782.01922522 2.84561199 790.75 2 C792.37743637 1.84174744 792.37743637 1.84174744 794.03775024 1.68029785 C797.0405921 1.38890826 800.04367578 1.10017998 803.046875 0.8125 C803.90973618 0.72852966 804.77259735 0.64455933 805.66160583 0.55804443 C809.13074737 0.228656 812.51167131 0 816 0 C816.0502236 5.79425864 816.08610004 11.58838482 816.10986328 17.3828125 C816.11979151 19.34540011 816.13333855 21.30797347 816.15087891 23.27050781 C816.29209576 39.50213928 815.79039727 55.53341163 811.875 71.375 C811.55849487 72.67062866 811.55849487 72.67062866 811.2355957 73.99243164 C804.95427646 98.39813557 792.52579265 120.22060751 775.30859375 138.5390625 C773.25781689 140.72516981 771.30879725 142.9610155 769.375 145.25 C765.88459204 149.23903767 762.08885363 152.63460862 758 156 C757.47905762 156.43328613 756.95811523 156.86657227 756.42138672 157.31298828 C687.16024344 214.7419385 591.33033288 234.93298442 480.40625 245.23828125 C479.63469574 245.30153595 478.86314148 245.36479065 478.06820679 245.42996216 C462.68991307 246.62691602 447.33566263 247.16531151 431.9140625 247.203125 C430.13507057 247.21010558 428.35607887 247.21714653 426.5770874 247.22424316 C420.92638842 247.2435083 415.27572826 247.24841858 409.625 247.25 C408.66318062 247.25058914 407.70136124 247.25117828 406.71039581 247.25178528 C378.48152989 247.26399395 350.39877916 247.05480014 322.284729 244.22784424 C319.96584215 243.99659361 317.64604862 243.77788915 315.32568359 243.56201172 C230.54248562 235.59832729 140.09011038 216.92298034 39.3125 138.125 C38.18923296 136.76555887 37.08824702 135.38763376 36 134 C35.36529785 133.20916016 35.36529785 133.20916016 34.71777344 132.40234375 C8.18247834 99.17491541 -0.48970841 62.70636691 -0.125 20.875 C-0.11493621 18.83724405 -0.10581645 16.79948321 -0.09765625 14.76171875 C-0.07594406 9.84102176 -0.0416075 4.92056732 0 0 Z " fill="#FFFFFF" transform="translate(104,705)"/>
<path d="M0 0 C13.53796265 10.10736176 22.46218193 23.85370679 25.53125 40.49609375 C27.70514313 56.74594493 24.67700443 73.30848159 14.76318359 86.66650391 C4.57312061 99.34065508 -8.80161072 108.35292618 -25 111 C-42.6432941 112.64423655 -58.91069651 109.74295212 -73.1015625 98.5546875 C-86.37975147 87.2613507 -94.27880876 72.38160734 -96 55 C-97.34591338 37.9040364 -90.88874416 21.96867105 -80.23046875 8.81640625 C-58.89526025 -14.22561893 -25.86000945 -15.48000566 0 0 Z " fill="#FFFFFF" transform="translate(342,482)"/>
<path d="M0 0 C14.36859693 10.73375662 24.03417342 24.66578142 26.92578125 42.59375 C28.80531941 60.43227577 23.95549156 76.30486215 13.30078125 90.71875 C4.25899137 101.62264947 -9.58681955 109.73165931 -23.69921875 111.71875 C-42.50015122 112.82313428 -59.48369548 110.08163649 -74.13671875 97.34375 C-87.26464091 84.60257514 -94.53574036 69.6840713 -95.07421875 51.21875 C-94.55634864 34.12903638 -88.56528491 19.38541133 -76.51953125 7.34375 C-55.78000402 -11.95952188 -23.99794583 -15.81041137 0 0 Z " fill="#FFFFFF" transform="translate(750.69921875,481.28125)"/>
</svg>
